<svg xmlns="http://www.w3.org/2000/svg" width="48" height="48" fill="none" id="social-media">
  <g fill="#000" clip-path="url(#a)">
    <path d="M24 4.323c6.413 0 7.172.028 9.694.14 2.343.104 3.61.498 4.453.826 1.116.431 1.922.956 2.756 1.79.844.844 1.36 1.641 1.79 2.757.329.844.723 2.118.826 4.453.112 2.531.14 3.29.14 9.694 0 6.412-.028 7.171-.14 9.693-.103 2.344-.497 3.61-.825 4.453-.431 1.116-.957 1.922-1.79 2.757-.845.843-1.642 1.36-2.757 1.79-.844.328-2.119.722-4.453.825-2.532.113-3.29.141-9.694.141-6.413 0-7.172-.028-9.694-.14-2.343-.104-3.61-.498-4.453-.826-1.115-.43-1.922-.956-2.756-1.79-.844-.844-1.36-1.64-1.79-2.757-.329-.843-.723-2.118-.826-4.453-.112-2.53-.14-3.29-.14-9.693 0-6.413.028-7.172.14-9.694.103-2.344.497-3.61.825-4.453.431-1.116.957-1.922 1.79-2.757.845-.843 1.642-1.359 2.757-1.79.844-.328 2.119-.722 4.453-.825 2.522-.113 3.281-.14 9.694-.14m0-4.322c-6.516 0-7.331.028-9.89.141-2.55.112-4.304.525-5.822 1.116-1.585.618-2.926 1.434-4.257 2.775-1.34 1.33-2.156 2.671-2.775 4.246C.666 9.808.253 11.551.141 14.101.028 16.671 0 17.486 0 24.001s.028 7.332.14 9.891c.113 2.55.526 4.303 1.116 5.822.619 1.584 1.435 2.925 2.775 4.256a11.7 11.7 0 0 0 4.247 2.766c1.528.59 3.272 1.003 5.822 1.115 2.56.113 3.375.141 9.89.141s7.332-.028 9.891-.14c2.55-.113 4.303-.526 5.822-1.116a11.7 11.7 0 0 0 4.247-2.766 11.7 11.7 0 0 0 2.766-4.247c.59-1.528 1.003-3.272 1.115-5.822.113-2.559.14-3.375.14-9.89s-.027-7.331-.14-9.89c-.112-2.55-.525-4.304-1.115-5.823-.591-1.594-1.407-2.934-2.747-4.265a11.7 11.7 0 0 0-4.247-2.766C38.194.677 36.45.264 33.9.151 31.331.03 30.516.001 24 .001"></path>
    <path d="M24 11.673c-6.806 0-12.328 5.522-12.328 12.328 0 6.807 5.522 12.329 12.328 12.329S36.328 30.808 36.328 24c0-6.806-5.522-12.328-12.328-12.328m0 20.325a7.998 7.998 0 0 1 0-15.994 7.998 7.998 0 0 1 0 15.994m15.694-20.811a2.879 2.879 0 1 1-2.878-2.879 2.885 2.885 0 0 1 2.878 2.879"></path>
  </g>
  <defs>
    <clipPath id="a">
      <path fill="#fff" d="M0 .001h48v48H0z"></path>
    </clipPath>
  </defs>
</svg>
